<svg xmlns="http://www.w3.org/2000/svg" viewBox="0 0 462.2 410.66"><defs><style>.cls-1,.cls-13,.cls-6{fill:#fff;}.cls-2{fill:#f99900;}.cls-3{fill:#ed7c00;}.cls-10,.cls-4{fill:#373543;}.cls-5{fill:#1a100e;}.cls-6{opacity:0.3;}.cls-7{fill:#dbd0ca;}.cls-8{fill:#375bc9;}.cls-9{fill:#fc461a;}.cls-10{font-size:40.45px;font-family:Montserrat-Black, Montserrat Black;font-weight:800;}.cls-11{letter-spacing:0.01em;}.cls-12{fill:#e6e6e6;}.cls-13{opacity:0.1;}.cls-14{fill:#fab18d;}.cls-15{fill:#dc2c0f;}.cls-16{fill:#3043bc;}.cls-17{fill:#fbb285;}.cls-18{fill:#1f2232;}.cls-19{fill:#616077;}.cls-20{fill:#ff8864;}.cls-21{fill:#ff664d;}.cls-22{fill:#171ea9;}.cls-23{fill:#5573ed;}</style></defs><g id="OBJECTS"><path class="cls-1" d="M220,143.37c-16.31-59.19-89.85-78.26-132-34-.6.63-1.21,1.28-1.81,1.94C25.82,177,54.36,338.8,180.45,379.82S437.68,345.93,445.05,279,394.25,191,304,209.7C253,220.27,230.2,180.22,220,143.37Z" transform="translate(-20.65 -39.42)"/><path class="cls-1" d="M61.06,290.06a31.84,31.84,0,0,0-3.75-25c-4.48-7.3-11.31-14.92-18.85-10.94-13.23,7,2.09,41,13.32,44.28C56.87,299.88,59.6,295.4,61.06,290.06Z" transform="translate(-20.65 -39.42)"/><path class="cls-1" d="M443.89,191c.09-8.78-6-15.57-12.31-23.21-5.44-6.62-12.27-11.65-18.57-5.9C402,172,421.92,200,433.61,200.34,438.91,200.49,443.82,199.12,443.89,191Z" transform="translate(-20.65 -39.42)"/><path class="cls-1" d="M275.36,142.86a40.51,40.51,0,0,0-12.64-29.58c-7.87-7.55-18.72-14.74-26.73-7.41-14.06,12.87,15.75,49.85,30.63,50.25C273.36,156.3,275.28,149.91,275.36,142.86Z" transform="translate(-20.65 -39.42)"/><path class="cls-1" d="M212.82,90.39a22.83,22.83,0,0,0-12.5-13.16c-5.63-2.45-12.79-4.13-15.58,1.32-4.92,9.56,18.1,23.28,26,20.57C214.39,97.89,214.15,94.14,212.82,90.39Z" transform="translate(-20.65 -39.42)"/><ellipse class="cls-1" cx="222.05" cy="360.99" rx="205.53" ry="9.25"/><path class="cls-2" d="M89.09,178.25a4.1,4.1,0,0,1-.33.37c-3.21,3.19-8.79-9-3.64-21.21s.91-28.34-6-29-.9,10.1-9.8,8.46S59,111.53,47.55,112.84c-10,1.15-3.61,18.71,1.39,26.11,4.71,7,3.31,14.1-2,12.54s-10.58,5.79-2.7,17.2,18.54,22.76,13.41,24.07-15.82-9.9-20.36,3.36c-2,5.93,10.88,26.46,39.56,28.08L89.09,211Z" transform="translate(-20.65 -39.42)"/><path class="cls-3" d="M85.73,211C73.62,178.84,53.27,129.61,53,129a.76.76,0,0,1,.4-1,.74.74,0,0,1,1,.4c.25.61,20.82,50.37,32.92,82.53Z" transform="translate(-20.65 -39.42)"/><path class="cls-3" d="M67.68,163.91a.68.68,0,0,1-.35-.13.75.75,0,0,1-.19-1c.06-.09,6.4-9.43,8.28-16.17a.74.74,0,1,1,1.42.4c-1.94,7-8.21,16.22-8.48,16.61A.74.74,0,0,1,67.68,163.91Z" transform="translate(-20.65 -39.42)"/><path class="cls-3" d="M70.41,171.81h0c-.45-.07-11.19-1.73-18.47-5.71a.74.74,0,0,1-.29-1,.73.73,0,0,1,1-.29c7,3.85,17.88,5.52,18,5.54a.74.74,0,0,1-.18,1.47Z" transform="translate(-20.65 -39.42)"/><path class="cls-3" d="M89.09,194.6a65.85,65.85,0,0,1-6.52,6.69.74.74,0,0,0-.08,1.05.71.71,0,0,0,.49.25.75.75,0,0,0,.55-.17,63.41,63.41,0,0,0,5.56-5.53Z" transform="translate(-20.65 -39.42)"/><path class="cls-3" d="M73.74,209a43.68,43.68,0,0,1-12.69-2.83.73.73,0,0,1-.39-1,.74.74,0,0,1,1-.39c9.12,3.88,23.73,2.9,23.88,2.89a.74.74,0,1,1,.1,1.48A81,81,0,0,1,73.74,209Z" transform="translate(-20.65 -39.42)"/><path class="cls-2" d="M409.16,339a2.35,2.35,0,0,0,.33.37c3.21,3.19,8.78-9,3.63-21.22s-.9-28.33,6-29,.91,10.1,9.81,8.46,10.27-25.37,21.76-24.06c10.06,1.14,3.61,18.71-1.38,26.11-4.71,7-3.32,14.09,2,12.54s10.57,5.79,2.7,17.2-18.54,22.76-13.41,24.06,15.81-9.9,20.36,3.37c2,5.93-2.36,11-7.84,14.85H409.16Z" transform="translate(-20.65 -39.42)"/><path class="cls-3" d="M412.52,371.71c12.11-32.13,32.45-81.36,32.7-82a.74.74,0,1,0-1.37-.57c-.24.6-20.82,50.37-32.91,82.53Z" transform="translate(-20.65 -39.42)"/><path class="cls-3" d="M430.56,324.65a.79.79,0,0,0,.35-.13.74.74,0,0,0,.2-1c-.07-.09-6.4-9.43-8.28-16.17a.74.74,0,1,0-1.43.4c2,7,8.22,16.22,8.48,16.61A.75.75,0,0,0,430.56,324.65Z" transform="translate(-20.65 -39.42)"/><path class="cls-3" d="M427.84,332.55h0c.46-.07,11.2-1.73,18.48-5.72a.74.74,0,0,0,.29-1,.75.75,0,0,0-1-.3c-7,3.86-17.87,5.53-18,5.55a.74.74,0,0,0,.18,1.47Z" transform="translate(-20.65 -39.42)"/><path class="cls-3" d="M409.16,355.34a63.51,63.51,0,0,0,6.52,6.69.74.74,0,0,1,.08,1.05.76.76,0,0,1-1.05.08,65.72,65.72,0,0,1-5.55-5.53Z" transform="translate(-20.65 -39.42)"/><path class="cls-3" d="M424.5,369.71a43.41,43.41,0,0,0,12.7-2.82.74.74,0,0,0-.58-1.36c-9.13,3.88-23.73,2.9-23.88,2.89a.74.74,0,0,0-.1,1.48A81.66,81.66,0,0,0,424.5,369.71Z" transform="translate(-20.65 -39.42)"/><path class="cls-2" d="M455.64,179.48c4.11-16.59,11.06-31.54,17.62-24.84s-5.88,32.21-23.06,45.76l-4.75,6c12.36-10.09,31.61-15.44,36.4-9.08s-8.39,8.72-20.76,8.91c-9.41.14-15.54,2.39-18.54,3.84l-22.4,28.37c19.6-15.93,50-24.33,57.58-14.26S464.42,238,444.8,238.32c-14.83.22-24.53,3.74-29.32,6L411,250l-3.3-1.88,26.66-33.75a48.54,48.54,0,0,0-1.14-15.2c-2.68-12.08-3.4-25.42,3.86-22.25,6.29,2.74,6.61,18,2.12,31.32l9.22-11.68C450.66,192.49,453.87,186.64,455.64,179.48Z" transform="translate(-20.65 -39.42)"/><path class="cls-2" d="M47.85,301.92c-4.11-16.59-11.06-31.54-17.62-24.84s5.88,32.21,23.07,45.76l4.74,6c-12.35-10.09-31.61-15.43-36.39-9.07s8.38,8.72,20.75,8.91c9.42.14,15.55,2.39,18.54,3.84l22.41,28.37c-19.61-15.93-50-24.34-57.59-14.27s13.31,13.84,32.94,14.14c14.83.22,24.53,3.74,29.32,6l4.47,5.66,3.29-1.88L69.13,336.82a48.41,48.41,0,0,1,1.13-15.19c2.69-12.08,3.4-25.42-3.85-22.26-6.3,2.75-6.62,18-2.12,31.32L55.07,319A70.65,70.65,0,0,1,47.85,301.92Z" transform="translate(-20.65 -39.42)"/><rect class="cls-4" x="54.3" y="125.04" width="346.35" height="214.75" rx="13.95"/><path class="cls-5" d="M421.3,271.84v93.43a14,14,0,0,1-13.95,14H88.9a14,14,0,0,1-14-14V271.84Z" transform="translate(-20.65 -39.42)"/><path class="cls-1" d="M405.91,187.91V355.77a8.94,8.94,0,0,1-8.94,8.94H99.28a8.95,8.95,0,0,1-8.94-8.94V187.91A9,9,0,0,1,99.28,179H397a8.95,8.95,0,0,1,8.94,8.95Z" transform="translate(-20.65 -39.42)"/><path class="cls-6" d="M405.91,187.91V355.77a8.94,8.94,0,0,1-8.94,8.94H99.28a8.95,8.95,0,0,1-8.94-8.94V187.91A9,9,0,0,1,99.28,179H397a8.95,8.95,0,0,1,8.94,8.95Z" transform="translate(-20.65 -39.42)"/><path class="cls-7" d="M405.91,187.91v9.33H90.34v-9.33A9,9,0,0,1,99.28,179H397a8.95,8.95,0,0,1,8.94,8.95Z" transform="translate(-20.65 -39.42)"/><path class="cls-5" d="M404.3,182.79H92A8.92,8.92,0,0,1,99.28,179H397A8.92,8.92,0,0,1,404.3,182.79Z" transform="translate(-20.65 -39.42)"/><path class="cls-8" d="M373.16,189.05a3.13,3.13,0,1,1-3.12-3.12A3.13,3.13,0,0,1,373.16,189.05Z" transform="translate(-20.65 -39.42)"/><path class="cls-2" d="M383.3,189.05a3.13,3.13,0,1,1-3.13-3.12A3.13,3.13,0,0,1,383.3,189.05Z" transform="translate(-20.65 -39.42)"/><path class="cls-9" d="M392.94,189.05a3.13,3.13,0,1,1-3.13-3.12A3.13,3.13,0,0,1,392.94,189.05Z" transform="translate(-20.65 -39.42)"/><rect class="cls-7" x="89.76" y="125.04" width="155.68" height="200.25"/><rect class="cls-5" x="89.76" y="125.04" width="155.68" height="18.33"/><rect class="cls-1" x="82.57" y="86" width="155.68" height="239.3"/><path class="cls-7" d="M117.58,185h0a2.87,2.87,0,0,0,2.86,2.87h126a2.87,2.87,0,0,0,2.86-2.87h0a2.86,2.86,0,0,0-2.86-2.86h-126A2.86,2.86,0,0,0,117.58,185Z" transform="translate(-20.65 -39.42)"/><path class="cls-7" d="M117.58,197.43h0a2.87,2.87,0,0,0,2.86,2.87h126a2.87,2.87,0,0,0,2.86-2.87h0a2.86,2.86,0,0,0-2.86-2.86h-126A2.86,2.86,0,0,0,117.58,197.43Z" transform="translate(-20.65 -39.42)"/><path class="cls-7" d="M117.58,209.84h0a2.86,2.86,0,0,0,2.86,2.87h126a2.86,2.86,0,0,0,2.86-2.87h0a2.86,2.86,0,0,0-2.86-2.86h-126A2.86,2.86,0,0,0,117.58,209.84Z" transform="translate(-20.65 -39.42)"/><path class="cls-7" d="M117.58,227.07h0a2.86,2.86,0,0,0,2.86,2.86h126a2.86,2.86,0,0,0,2.86-2.86h0a2.86,2.86,0,0,0-2.86-2.87h-126A2.86,2.86,0,0,0,117.58,227.07Z" transform="translate(-20.65 -39.42)"/><path class="cls-7" d="M117.58,239.48h0a2.86,2.86,0,0,0,2.86,2.86h126a2.86,2.86,0,0,0,2.86-2.86h0a2.87,2.87,0,0,0-2.86-2.87h-126A2.87,2.87,0,0,0,117.58,239.48Z" transform="translate(-20.65 -39.42)"/><path class="cls-7" d="M117.58,251.89h0a2.86,2.86,0,0,0,2.86,2.86h126a2.86,2.86,0,0,0,2.86-2.86h0a2.87,2.87,0,0,0-2.86-2.87h-126A2.87,2.87,0,0,0,117.58,251.89Z" transform="translate(-20.65 -39.42)"/><rect class="cls-7" x="96.94" y="229.39" width="60.12" height="88.11" rx="5.15"/><rect class="cls-7" x="168.5" y="229.39" width="60.12" height="88.11" rx="5.15"/><text class="cls-10" transform="translate(94.45 130.05)">N<tspan class="cls-11" x="26.61" y="0">E</tspan><tspan x="46.88" y="0">WS</tspan></text><path class="cls-7" d="M329.43,211.54h-49a1.64,1.64,0,0,0-1.52,1.73h0A1.63,1.63,0,0,0,280.4,215h49a1.63,1.63,0,0,0,1.52-1.72h0A1.64,1.64,0,0,0,329.43,211.54Z" transform="translate(-20.65 -39.42)"/><path class="cls-7" d="M329.43,219.85h-49a1.63,1.63,0,0,0-1.52,1.73h0a1.63,1.63,0,0,0,1.52,1.72h49a1.63,1.63,0,0,0,1.52-1.72h0A1.63,1.63,0,0,0,329.43,219.85Z" transform="translate(-20.65 -39.42)"/><path class="cls-7" d="M329.43,228.16h-49a1.63,1.63,0,0,0-1.52,1.72h0a1.63,1.63,0,0,0,1.52,1.73h49a1.63,1.63,0,0,0,1.52-1.73h0A1.63,1.63,0,0,0,329.43,228.16Z" transform="translate(-20.65 -39.42)"/><path class="cls-7" d="M329.43,236.46h-49a1.64,1.64,0,0,0-1.52,1.73h0a1.64,1.64,0,0,0,1.52,1.73h49a1.64,1.64,0,0,0,1.52-1.73h0A1.64,1.64,0,0,0,329.43,236.46Z" transform="translate(-20.65 -39.42)"/><path class="cls-7" d="M329.43,244.77h-49a1.63,1.63,0,0,0-1.52,1.73h0a1.63,1.63,0,0,0,1.52,1.72h49A1.63,1.63,0,0,0,331,246.5h0A1.63,1.63,0,0,0,329.43,244.77Z" transform="translate(-20.65 -39.42)"/><path class="cls-7" d="M329.43,253.08h-49a1.63,1.63,0,0,0-1.52,1.72h0a1.63,1.63,0,0,0,1.52,1.73h49A1.63,1.63,0,0,0,331,254.8h0A1.63,1.63,0,0,0,329.43,253.08Z" transform="translate(-20.65 -39.42)"/><path class="cls-7" d="M329.43,261.39h-49a1.63,1.63,0,0,0-1.52,1.72h0a1.64,1.64,0,0,0,1.52,1.73h49a1.64,1.64,0,0,0,1.52-1.73h0A1.63,1.63,0,0,0,329.43,261.39Z" transform="translate(-20.65 -39.42)"/><path class="cls-7" d="M329.43,269.69h-49a1.64,1.64,0,0,0-1.52,1.73h0a1.63,1.63,0,0,0,1.52,1.72h49a1.63,1.63,0,0,0,1.52-1.72h0A1.64,1.64,0,0,0,329.43,269.69Z" transform="translate(-20.65 -39.42)"/><path class="cls-7" d="M393.19,211.54h-49a1.64,1.64,0,0,0-1.52,1.73h0a1.63,1.63,0,0,0,1.52,1.72h49a1.63,1.63,0,0,0,1.52-1.72h0A1.64,1.64,0,0,0,393.19,211.54Z" transform="translate(-20.65 -39.42)"/><path class="cls-7" d="M393.19,219.85h-49a1.63,1.63,0,0,0-1.52,1.73h0a1.63,1.63,0,0,0,1.52,1.72h49a1.63,1.63,0,0,0,1.52-1.72h0A1.63,1.63,0,0,0,393.19,219.85Z" transform="translate(-20.65 -39.42)"/><path class="cls-7" d="M393.19,228.16h-49a1.63,1.63,0,0,0-1.52,1.72h0a1.63,1.63,0,0,0,1.52,1.73h49a1.63,1.63,0,0,0,1.52-1.73h0A1.63,1.63,0,0,0,393.19,228.16Z" transform="translate(-20.65 -39.42)"/><path class="cls-7" d="M393.19,236.46h-49a1.64,1.64,0,0,0-1.52,1.73h0a1.64,1.64,0,0,0,1.52,1.73h49a1.64,1.64,0,0,0,1.52-1.73h0A1.64,1.64,0,0,0,393.19,236.46Z" transform="translate(-20.65 -39.42)"/><path class="cls-7" d="M393.19,244.77h-49a1.63,1.63,0,0,0-1.52,1.73h0a1.63,1.63,0,0,0,1.52,1.72h49a1.63,1.63,0,0,0,1.52-1.72h0A1.63,1.63,0,0,0,393.19,244.77Z" transform="translate(-20.65 -39.42)"/><path class="cls-7" d="M393.19,253.08h-49a1.63,1.63,0,0,0-1.52,1.72h0a1.63,1.63,0,0,0,1.52,1.73h49a1.63,1.63,0,0,0,1.52-1.73h0A1.63,1.63,0,0,0,393.19,253.08Z" transform="translate(-20.65 -39.42)"/><path class="cls-7" d="M393.19,261.39h-49a1.63,1.63,0,0,0-1.52,1.72h0a1.64,1.64,0,0,0,1.52,1.73h49a1.64,1.64,0,0,0,1.52-1.73h0A1.63,1.63,0,0,0,393.19,261.39Z" transform="translate(-20.65 -39.42)"/><path class="cls-7" d="M393.19,269.69h-49a1.64,1.64,0,0,0-1.52,1.73h0a1.63,1.63,0,0,0,1.52,1.72h49a1.63,1.63,0,0,0,1.52-1.72h0A1.64,1.64,0,0,0,393.19,269.69Z" transform="translate(-20.65 -39.42)"/><circle class="cls-7" cx="315.59" cy="275.25" r="17.16"/><polygon class="cls-1" points="309.56 284.28 309.56 266.23 324.98 275.25 309.56 284.28"/><path class="cls-7" d="M388.78,345.44h-104a7.17,7.17,0,0,1-7.16-7.16V292.19A7.16,7.16,0,0,1,284.8,285h104a7.16,7.16,0,0,1,7.16,7.15v46.09A7.17,7.17,0,0,1,388.78,345.44Zm-104-57.94a4.7,4.7,0,0,0-4.69,4.69v46.09a4.7,4.7,0,0,0,4.69,4.7h104a4.71,4.71,0,0,0,4.7-4.7V292.19a4.71,4.71,0,0,0-4.7-4.69Z" transform="translate(-20.65 -39.42)"/><path class="cls-4" d="M453.65,371.75v1.19a27.17,27.17,0,0,1-27.18,27.18H69.78A27.17,27.17,0,0,1,42.6,372.94v-1.19Z" transform="translate(-20.65 -39.42)"/><path class="cls-12" d="M202.05,371.75V372c0,2.15,1.45,3.9,3.22,3.9h83.92c1.78,0,3.22-1.75,3.22-3.9v-.27Z" transform="translate(-20.65 -39.42)"/><path class="cls-5" d="M448.51,388.85a27.14,27.14,0,0,1-22,11.27H69.78a27.14,27.14,0,0,1-22-11.27Z" transform="translate(-20.65 -39.42)"/><path class="cls-13" d="M405.91,187.91V355.77a8.94,8.94,0,0,1-8.94,8.94H99.28a8.89,8.89,0,0,1-6.65-3L401.49,180.19A8.94,8.94,0,0,1,405.91,187.91Z" transform="translate(-20.65 -39.42)"/><polygon class="cls-14" points="345.55 107.21 349.22 115.06 341.46 115.18 338.47 108.04 345.55 107.21"/><path class="cls-8" d="M367.43,154s1.59-2.14,2.85-2.05,11,7.85,14.37,8.49,3,4,1.63,4c-4,0-26.22-.16-26.22-.16s-.71-7.75.14-10.12S364.81,154.55,367.43,154Z" transform="translate(-20.65 -39.42)"/><path class="cls-1" d="M372.82,159.4a.53.53,0,0,1-.37,0,.47.47,0,0,1-.17-.64,7.08,7.08,0,0,1,2.44-2.54,3.23,3.23,0,0,1,3.31.15.48.48,0,0,1,.1.66.47.47,0,0,1-.66.09,2.33,2.33,0,0,0-2.33-.07,6.52,6.52,0,0,0-2.05,2.17A.45.45,0,0,1,372.82,159.4Z" transform="translate(-20.65 -39.42)"/><path class="cls-1" d="M371.42,158.08a.46.46,0,0,1-.36,0,.46.46,0,0,1-.18-.64,7.26,7.26,0,0,1,2.44-2.54,3.24,3.24,0,0,1,3.31.15.47.47,0,1,1-.56.76,2.27,2.27,0,0,0-2.33-.07,6.25,6.25,0,0,0-2,2.16A.5.5,0,0,1,371.42,158.08Z" transform="translate(-20.65 -39.42)"/><path class="cls-1" d="M374.71,160.47a.48.48,0,0,1-.37,0,.47.47,0,0,1-.17-.64,7.08,7.08,0,0,1,2.44-2.54,3.22,3.22,0,0,1,3.31.15.48.48,0,0,1,.1.66.47.47,0,0,1-.66.09,2.33,2.33,0,0,0-2.33-.07,6.41,6.41,0,0,0-2,2.17A.45.45,0,0,1,374.71,160.47Z" transform="translate(-20.65 -39.42)"/><path class="cls-9" d="M368.41,149.19,365,150.31l-1.91.11-3.28.19c-4.34-3.43-16-13.75-18.32-19.84,0,0-15,35-35.86,35-1.35,0,2.22-17.42,5.61-21,0,0,19.18-35.75,31.62-32C348.4,114.48,354,122.59,368.41,149.19Z" transform="translate(-20.65 -39.42)"/><path class="cls-15" d="M356.34,148.27a10.82,10.82,0,0,0,2.38,3.16s7.35-.34,10.93-2.13L368,145.56A54.73,54.73,0,0,1,356.34,148.27Z" transform="translate(-20.65 -39.42)"/><path class="cls-15" d="M365,150.31l-1.91.11c-12.76-9.67-18.68-17.85-21.4-23.1a.41.41,0,0,0-.35-.24.25.25,0,0,0-.2.16c-6.11,14.39-13.44,23-18.52,27.74-5.54,5.14-9.59,6.83-9.75,6.9l-.24-.57-.23-.57s4.05-1.71,9.44-6.72c5-4.63,12.16-13.11,18.17-27.26a1.42,1.42,0,0,1,1.28-.91,1.63,1.63,0,0,1,1.49.9C345.5,132,351.58,140.4,365,150.31Z" transform="translate(-20.65 -39.42)"/><path class="cls-16" d="M310.25,84s14.25,17,20.23,19.8a18.74,18.74,0,0,0,7.14,1.73c.64,0,2.31-.11,2.41-.11h0c7.11-.88,15.47-3,25.92-7.28l-1.56-4.84a114.84,114.84,0,0,1-14,1.88c-2.84.2-9.38.5-11.8.89q-.9-.4-1.77-.87c-10.62-5.74-17.63-17.41-17.63-17.41C315.85,79,312,81.36,310.25,84Z" transform="translate(-20.65 -39.42)"/><path class="cls-17" d="M364.14,92.86s1.45-3.67,3.43-4.72,7.62-4.75,8.82-3.64,1,6.41-4.1,10.85a10.08,10.08,0,0,1-6.46,2.71Z" transform="translate(-20.65 -39.42)"/><path class="cls-5" d="M376.75,87.88l-8.32,7.77a1.2,1.2,0,0,1-1.26.19l-5.1-2.47a.51.51,0,0,1-.3-.31l0,0-.25-.85,1.36-.51,13.09-5,.71-.26.26.9,0,.06s0,0,0,0A.52.52,0,0,1,376.75,87.88Z" transform="translate(-20.65 -39.42)"/><path class="cls-18" d="M376,86.68l-13.09,5,7.4-6.92a1.21,1.21,0,0,1,1.26-.19Z" transform="translate(-20.65 -39.42)"/><path class="cls-4" d="M366.92,95l-5.1-2.47a.49.49,0,0,1-.14-.86L370,83.87a1.25,1.25,0,0,1,1.27-.19l5.1,2.47a.49.49,0,0,1,.13.86l-8.32,7.78A1.23,1.23,0,0,1,366.92,95Z" transform="translate(-20.65 -39.42)"/><path class="cls-19" d="M367.54,93.58l-4-1.91a.49.49,0,0,1-.13-.86l6.47-6a1.23,1.23,0,0,1,1.26-.19l4,1.91a.5.5,0,0,1,.13.87l-6.47,6A1.21,1.21,0,0,1,367.54,93.58Z" transform="translate(-20.65 -39.42)"/><path class="cls-18" d="M377,87.4h0s0,0,0,0Z" transform="translate(-20.65 -39.42)"/><path class="cls-17" d="M367.43,86.28s1.19.18,1.31,1.2-1,.61-1.69.39a1.74,1.74,0,0,0-1.45.12C365.29,88.35,365.35,86,367.43,86.28Z" transform="translate(-20.65 -39.42)"/><path class="cls-17" d="M372.73,91.81A47.21,47.21,0,0,1,376,87.08c.95-1.11,1.44.51.79,1.63S374.87,92.13,372.73,91.81Z" transform="translate(-20.65 -39.42)"/><path class="cls-8" d="M300.25,66.34s-9,0-13.07,3.74S287,81.3,291.43,82.26s18.3-.68,19.75-3.05S311.7,66.52,300.25,66.34Z" transform="translate(-20.65 -39.42)"/><path class="cls-8" d="M286.09,146.91l-4.36-28.14.94-38.83,10.44-3.53.56-.19,2.35-.79,1.86-.63,11,1.52,1.8.25.63.08,7.89,1.09c.07,25-2.32,30.34,2.29,50.64C323.83,136,315.31,163.15,286.09,146.91Z" transform="translate(-20.65 -39.42)"/><path class="cls-16" d="M301,82.37a9.91,9.91,0,0,1-9.75-7.06.28.28,0,0,1,.21-.35.29.29,0,0,1,.35.21A9.19,9.19,0,0,0,301,81.79h.12a.3.3,0,0,1,.29.29.29.29,0,0,1-.29.29Z" transform="translate(-20.65 -39.42)"/><path class="cls-16" d="M308.42,81.28a.29.29,0,0,1-.29-.29.28.28,0,0,1,.29-.29c.1,0,2.4-.1,3-3.2a.29.29,0,1,1,.57.11c-.68,3.59-3.53,3.67-3.56,3.67Z" transform="translate(-20.65 -39.42)"/><path class="cls-16" d="M295.66,120.67s-1.28,9.79,1.33,14.58c0,0,13,.91,22.44-2.8a48.76,48.76,0,0,1-2.4-13.51Z" transform="translate(-20.65 -39.42)"/><path class="cls-1" d="M302.6,110.3h0a.29.29,0,0,1-.27-.32c.66-7.26-2.06-25.59-2.09-25.77a.29.29,0,1,1,.57-.09c0,.19,2.76,18.59,2.1,25.92A.28.28,0,0,1,302.6,110.3Z" transform="translate(-20.65 -39.42)"/><path class="cls-1" d="M312.21,108.88h0a.31.31,0,0,1-.27-.32c.65-7.26-2.16-25.73-2.19-25.92a.29.29,0,0,1,.25-.33.28.28,0,0,1,.33.24c0,.19,2.85,18.73,2.19,26.07A.28.28,0,0,1,312.21,108.88Z" transform="translate(-20.65 -39.42)"/><polygon class="cls-14" points="338.53 176.25 341.41 182.68 335.49 185.23 332.05 178.59 338.53 176.25"/><path class="cls-8" d="M360.77,222s.6-2.6,1.8-3,13.24,2.8,16.56,2.05,3.71,1.77,3.65,3.16-24.64,10.22-24.64,10.22-3.75-6.82-3.92-9.34S358.6,223.52,360.77,222Z" transform="translate(-20.65 -39.42)"/><path class="cls-1" d="M367.88,224.77a.5.5,0,0,1-.36.11.47.47,0,0,1-.41-.52,7.14,7.14,0,0,1,1.22-3.3,3.2,3.2,0,0,1,3.1-1.18.47.47,0,1,1-.21.91,2.31,2.31,0,0,0-2.17.87,6.33,6.33,0,0,0-1,2.8A.49.49,0,0,1,367.88,224.77Z" transform="translate(-20.65 -39.42)"/><path class="cls-1" d="M366.07,224.12a.49.49,0,0,1-.35.11.47.47,0,0,1-.42-.52,7.22,7.22,0,0,1,1.22-3.3,3.21,3.21,0,0,1,3.1-1.18.46.46,0,0,1,.35.56.47.47,0,0,1-.56.35,2.31,2.31,0,0,0-2.17.87,6.33,6.33,0,0,0-1,2.8A.45.45,0,0,1,366.07,224.12Z" transform="translate(-20.65 -39.42)"/><path class="cls-1" d="M370,225a.44.44,0,0,1-.35.1.46.46,0,0,1-.42-.51,7.29,7.29,0,0,1,1.22-3.31,3.26,3.26,0,0,1,3.1-1.18.47.47,0,0,1,.35.56.46.46,0,0,1-.56.35,2.34,2.34,0,0,0-2.17.87,6.39,6.39,0,0,0-1,2.81A.47.47,0,0,1,370,225Z" transform="translate(-20.65 -39.42)"/><path class="cls-9" d="M360.67,216.92a17.31,17.31,0,0,1-4.58,2.68c-.37.17-.76.33-1.14.49-.67.27-1.33.52-2,.74,0,0-14-25.89-19.43-44.66,0,0-47.53-5.86-49.18-22.51a8.87,8.87,0,0,1,0-1.71,12.15,12.15,0,0,1,1.72-5c1.08-1.87,17.35,0,26.14,2.42,0,0,23.83,9.28,32.64,18.85C349.33,173,360.67,216.92,360.67,216.92Z" transform="translate(-20.65 -39.42)"/><path class="cls-15" d="M350.46,218.12l2.24,3.58a19.39,19.39,0,0,0,9.36-4.78l-1.39-3.21A102.62,102.62,0,0,1,350.46,218.12Z" transform="translate(-20.65 -39.42)"/><path class="cls-15" d="M356.09,219.6c-.37.17-.76.33-1.14.49-7.1-11.76-17-39.22-19.16-45.81a1.31,1.31,0,0,0-1-.87c-23.09-4.34-36.4-10.4-43.49-14.71a46.91,46.91,0,0,1-6.92-5,8.87,8.87,0,0,1,0-1.71,42.39,42.39,0,0,0,7.71,5.78c7,4.23,20.14,10.19,42.94,14.47a2.54,2.54,0,0,1,1.94,1.69C339.16,180.49,349.06,208.07,356.09,219.6Z" transform="translate(-20.65 -39.42)"/><path class="cls-17" d="M274.8,156.74s3.24,4.38,3,6.65-3.19,6.55-5.54,6.75,2.69-5.49,1.51-5.31c-1.44.23-11.14,8.18-13.19,8.18s2.41-3.69,4.15-4.63c0,0-4.59,2.05-5.66,3.12s-1.85-1.22,3.49-4.47c0,0-4.89,2.78-5.23,2.82-1.09.15,2-3.49,4.7-4.81,0,0-3.93,1.91-4.33,1.92-.55,0,.63-1.28,3.55-2.89,2.62-1.45,6.92-8.13,6.92-8.13Z" transform="translate(-20.65 -39.42)"/><path class="cls-16" d="M282.67,79.94s-10.89,20.92-13.37,42.79l-1.16,33.21s1.12,2.37,6.66.8l5.37-33.21,4.11-15.2S286.15,89.63,282.67,79.94Z" transform="translate(-20.65 -39.42)"/><circle class="cls-4" cx="304.26" cy="55.24" r="12.03" transform="matrix(0.53, -0.85, 0.85, 0.53, 76.31, 245.28)"/><path class="cls-4" d="M316.29,55.17s3.52-.33,3.65-3.66c.12-2.84-3.45-1.62-2.79-3.74s1.66-4-1-5c-2.37-.91-2.7.76-5.49-2.24-3.29-3.56-7.39,2.59-10.82,2.19-5.06-.58-6.19,2.13-7.08,4.31a4.28,4.28,0,0,0,.75,4.11Z" transform="translate(-20.65 -39.42)"/><path class="cls-20" d="M313.53,60.3s2.32-2.18,3.35.14-2,8.08-5.17,6Z" transform="translate(-20.65 -39.42)"/><path class="cls-21" d="M312.79,64.67a.29.29,0,0,0,.31-.17,4.53,4.53,0,0,1,3-2.21.3.3,0,0,0,.23-.34.29.29,0,0,0-.34-.24,5.09,5.09,0,0,0-3.4,2.54.3.3,0,0,0,.14.39Z" transform="translate(-20.65 -39.42)"/><path class="cls-21" d="M314.93,64.06a.29.29,0,0,0,.16,0,.31.31,0,0,0,.16-.39,2.67,2.67,0,0,0-.93-1.06.29.29,0,0,0-.41.08.29.29,0,0,0,.08.4,2,2,0,0,1,.72.81A.28.28,0,0,0,314.93,64.06Z" transform="translate(-20.65 -39.42)"/><path class="cls-14" d="M297.9,69.33l-1.07,6.07s2,3.12,4.44,3.77,4.41-2,4.41-2l1-5.84Z" transform="translate(-20.65 -39.42)"/><path class="cls-20" d="M297.9,69.33,297.43,72c1.32,2.12,4.16,3.09,8.59,3.22l.69-3.91Z" transform="translate(-20.65 -39.42)"/><path class="cls-14" d="M294.25,52.59a59.57,59.57,0,0,0-.56,7.81,15.11,15.11,0,0,0,.09,1.71c.48,4.7,2.33,13,11.85,11.33,4.2-.71,6.81-4.79,8.42-9.13a44.16,44.16,0,0,0,2.07-8.21,6.43,6.43,0,0,0-2.27-6c-4.75-3.93-10.53-3.8-14.45-3A6.44,6.44,0,0,0,294.25,52.59Z" transform="translate(-20.65 -39.42)"/><path class="cls-4" d="M308.89,60.29c-.11.65.13,1.24.54,1.31s.84-.39,1-1-.13-1.24-.54-1.31S309,59.64,308.89,60.29Z" transform="translate(-20.65 -39.42)"/><path class="cls-4" d="M300.15,58.75c-.12.65.13,1.23.54,1.3s.84-.39.95-1-.12-1.23-.54-1.31S300.26,58.1,300.15,58.75Z" transform="translate(-20.65 -39.42)"/><path class="cls-4" d="M312.71,57.25s-2.89-1.78-5.47-1.17v1.15a10.29,10.29,0,0,1,5.07,1.27C312.56,58,312.82,57.81,312.71,57.25Z" transform="translate(-20.65 -39.42)"/><path class="cls-4" d="M298.48,54.73s3.33-.68,5.54.78l-.4,1.08a10.2,10.2,0,0,0-5.19-.54C298.36,55.51,298.19,55.22,298.48,54.73Z" transform="translate(-20.65 -39.42)"/><path class="cls-20" d="M303.94,64.18a3.11,3.11,0,0,1-1-.4.3.3,0,1,1,.32-.5c.24.15.83.43,1.13.32a.35.35,0,0,0,.19-.25,41.71,41.71,0,0,0,.61-4.45.29.29,0,0,1,.32-.26.28.28,0,0,1,.26.31,43.83,43.83,0,0,1-.62,4.56.87.87,0,0,1-.55.63A1.19,1.19,0,0,1,303.94,64.18Z" transform="translate(-20.65 -39.42)"/><path class="cls-1" d="M307.26,66.59A3.77,3.77,0,0,1,303,69.31c-2.65-.46-3-2.59-3.05-4Z" transform="translate(-20.65 -39.42)"/><path class="cls-20" d="M302.77,70.83a3.1,3.1,0,0,1-1.34-.64.3.3,0,0,1,.39-.45,2.33,2.33,0,0,0,1.05.51,2.37,2.37,0,0,0,1.11-.12.29.29,0,0,1,.38.16.3.3,0,0,1-.17.38A3,3,0,0,1,302.77,70.83Z" transform="translate(-20.65 -39.42)"/><path class="cls-4" d="M313.49,62.27a12.14,12.14,0,0,0,.9-3.46c0-1.45-1-2.47-.42-3.75s-.54-3-1.55-3.4-3.54-.34-5.74-1.9-6.24-1.43-7.15-.07c-1.1,1.65-.06,2-2.55,3.56-1,.61-.33,2.79-.41,4.12a9.52,9.52,0,0,1-.22,1.54l-.07.32-2.57-.45c.07-2.07.3-4.32.54-6.19a6.43,6.43,0,0,1,5.15-5.49c3.92-.76,9.7-.9,14.46,3a6.45,6.45,0,0,1,2.26,6,47.61,47.61,0,0,1-1.45,6.38Z" transform="translate(-20.65 -39.42)"/><path class="cls-14" d="M294.65,60.09a10.69,10.69,0,0,0,.2-2,2.45,2.45,0,0,0-1-2.34,1.6,1.6,0,0,0-2.2.16c-1.76,1.82-1.34,8.53,2.34,7.65Z" transform="translate(-20.65 -39.42)"/><path class="cls-20" d="M293.68,61.52a.29.29,0,0,1-.19-.3,4.51,4.51,0,0,0-1.39-3.44.29.29,0,1,1,.4-.43,5,5,0,0,1,1.57,3.93.28.28,0,0,1-.32.26Z" transform="translate(-20.65 -39.42)"/><path class="cls-20" d="M292.16,59.9a.32.32,0,0,1-.13-.1.29.29,0,0,1,.07-.41,2.59,2.59,0,0,1,1.34-.43.3.3,0,1,1,0,.59,2.16,2.16,0,0,0-1,.31A.31.31,0,0,1,292.16,59.9Z" transform="translate(-20.65 -39.42)"/><ellipse class="cls-1" cx="132.93" cy="392.23" rx="70.51" ry="18.43"/><path class="cls-4" d="M132.14,316.47v0c.07-.43.13-.86.18-1.28.65-6.26-2.12-18.07-15.88-17.54,0,0-11.39.21-13.72,11.09,0,0-1,5-1.73,8.68,0,0,.45,7.17-5.85,9.4S85.87,332.41,87.7,337s.65,4.11-2.8,9.29-1.51,11.33,4.73,13.15c7.87,2.3,12.3-7.05,22.87-4.12s25.7-2.54,25.61-10.49-8.57-11.05-9.15-14.95S131.89,320.4,132.14,316.47Z" transform="translate(-20.65 -39.42)"/><path class="cls-15" d="M161.54,393c-20.55-27.63-32.77-58.69-32.77-58.69L130.66,361S148.19,390.41,154.3,397C156.73,397,161.54,396.12,161.54,393Z" transform="translate(-20.65 -39.42)"/><polygon class="cls-14" points="184.2 380.42 189.94 384.49 186.13 389.69 179.8 385.71 184.2 380.42"/><path class="cls-15" d="M209.41,424.45s-.8-2.55,0-3.52,12.83-4.31,15.31-6.64,4.1-.35,4.75.88-16.05,21.3-16.05,21.3-6.7-4-8.12-6.06S208.33,426.89,209.41,424.45Z" transform="translate(-20.65 -39.42)"/><path class="cls-1" d="M217,423.26a.44.44,0,0,1-.25.27.46.46,0,0,1-.62-.23,7.14,7.14,0,0,1-.62-3.46,3.2,3.2,0,0,1,2.07-2.59.46.46,0,0,1,.59.3.48.48,0,0,1-.31.59,2.3,2.3,0,0,0-1.43,1.85,6.56,6.56,0,0,0,.55,2.93A.41.41,0,0,1,217,423.26Z" transform="translate(-20.65 -39.42)"/><path class="cls-1" d="M215.07,423.62a.5.5,0,0,1-.25.27.47.47,0,0,1-.62-.23,7.28,7.28,0,0,1-.62-3.47,3.23,3.23,0,0,1,2.07-2.59.47.47,0,0,1,.59.31.46.46,0,0,1-.31.58,2.34,2.34,0,0,0-1.43,1.85,6.33,6.33,0,0,0,.56,2.93A.47.47,0,0,1,215.07,423.62Z" transform="translate(-20.65 -39.42)"/><path class="cls-1" d="M218.94,422.36a.44.44,0,0,1-.25.27.47.47,0,0,1-.62-.23,7.24,7.24,0,0,1-.63-3.47,3.22,3.22,0,0,1,2.08-2.59.47.47,0,0,1,.58.31.47.47,0,0,1-.3.59,2.28,2.28,0,0,0-1.43,1.84,6.3,6.3,0,0,0,.55,2.93A.53.53,0,0,1,218.94,422.36Z" transform="translate(-20.65 -39.42)"/><path class="cls-16" d="M203.87,425.48a8.44,8.44,0,0,1-.86.65,12,12,0,0,1-2.12,1.23s-23.72-14.2-38.3-28.2c0,0-25,13.58-38.78,9.24a2,2,0,0,1-.8-.74h0a9.94,9.94,0,0,1-.62-1c-1.34-2.51-2.49-7.12.05-9.82,0,0,28.8-12.81,41.87-9.65s42.43,32.31,42.43,32.31C207,421.76,205.8,423.85,203.87,425.48Z" transform="translate(-20.65 -39.42)"/><path class="cls-22" d="M203.87,425.48a8.44,8.44,0,0,1-.86.65c-21.65-12.62-34.79-25.35-38.38-29a1.54,1.54,0,0,0-1.95-.2A71.89,71.89,0,0,1,123,407.66h0a9.94,9.94,0,0,1-.62-1,70.84,70.84,0,0,0,39.77-10.61,2.54,2.54,0,0,1,3.18.36C168.92,400.09,182.12,412.87,203.87,425.48Z" transform="translate(-20.65 -39.42)"/><path class="cls-8" d="M198.17,426.59l3.73,2a19.42,19.42,0,0,0,5.72-8.82l-2.93-2.54S201.56,424,198.17,426.59Z" transform="translate(-20.65 -39.42)"/><polygon class="cls-14" points="172.49 388.13 178.24 392.2 174.43 397.4 168.09 393.43 172.49 388.13"/><path class="cls-9" d="M197.7,432.16s-.79-2.55,0-3.52,12.82-4.3,15.31-6.63,4.09-.36,4.75.88-16.06,21.3-16.06,21.3-6.69-4-8.11-6.06S196.62,434.61,197.7,432.16Z" transform="translate(-20.65 -39.42)"/><path class="cls-1" d="M205.25,431a.48.48,0,0,1-.24.27.47.47,0,0,1-.62-.24,7.16,7.16,0,0,1-.63-3.46,3.23,3.23,0,0,1,2.07-2.59.47.47,0,0,1,.59.31.46.46,0,0,1-.31.58,2.32,2.32,0,0,0-1.42,1.85,6.38,6.38,0,0,0,.55,2.93A.47.47,0,0,1,205.25,431Z" transform="translate(-20.65 -39.42)"/><path class="cls-1" d="M203.37,431.33a.44.44,0,0,1-.25.27.46.46,0,0,1-.62-.23,7.24,7.24,0,0,1-.63-3.47,3.26,3.26,0,0,1,2.08-2.59.47.47,0,0,1,.58.31.47.47,0,0,1-.3.59,2.28,2.28,0,0,0-1.43,1.84,6.3,6.3,0,0,0,.55,2.93A.48.48,0,0,1,203.37,431.33Z" transform="translate(-20.65 -39.42)"/><path class="cls-1" d="M207.23,430.07a.49.49,0,0,1-.25.28.48.48,0,0,1-.62-.24,7.23,7.23,0,0,1-.62-3.46,3.21,3.21,0,0,1,2.07-2.59.47.47,0,1,1,.28.89,2.34,2.34,0,0,0-1.43,1.85,6.33,6.33,0,0,0,.56,2.93A.45.45,0,0,1,207.23,430.07Z" transform="translate(-20.65 -39.42)"/><path class="cls-8" d="M191.14,432.2a6,6,0,0,1-.81.69,14.8,14.8,0,0,1-1.69,1.18s-25.08-11.67-41-24.09c0,0-27.57,14.17-41.91,12.53-11.3-1.29-9.94-18.66-6.91-23.36,0,0,36-3.06,49.29-1.26s45.11,28.46,45.11,28.46A5.91,5.91,0,0,1,191.14,432.2Z" transform="translate(-20.65 -39.42)"/><path class="cls-16" d="M191.14,432.2a6,6,0,0,1-.81.69c-15.55-8.62-37.12-23.17-41.39-26.08a1.8,1.8,0,0,0-1.78-.14C139,410.4,111.77,422.31,105,418.54c-7.75-4.3-5-17.12-4.92-17.66l1,.22c0,.12-2.66,12.62,4.45,16.59,6.5,3.61,35.5-9.3,41.25-11.92a2.75,2.75,0,0,1,2.74.23C153.79,408.92,175.6,423.63,191.14,432.2Z" transform="translate(-20.65 -39.42)"/><path class="cls-23" d="M185.11,433.27l3.73,2a19.42,19.42,0,0,0,5.72-8.82l-3.18-2.18S188.5,430.7,185.11,433.27Z" transform="translate(-20.65 -39.42)"/><path class="cls-9" d="M129.76,378.83c-.54,9.41-.89,9.46,1.8,17.54-15.9,5.64-21.33,6.74-34.15,6.3-.46-7.73-1-16.81-.74-24.92.67-24.08,2.54-39.13,2.54-39.13l6.61-2.56,6.78-2.62,11.5.59,2.42.12,2.25.12a180.33,180.33,0,0,0,6,21.9c3,8.19-.44,9.83-2.3,11.78-.07.08-.14.15-.2.23a3.74,3.74,0,0,0-.64,1c0,.11-.09.23-.13.35-.11.3-.23.65-.33,1A65.34,65.34,0,0,0,129.76,378.83Z" transform="translate(-20.65 -39.42)"/><path class="cls-15" d="M132.5,368c-.07.08-.14.15-.2.23a3.74,3.74,0,0,0-.64,1c0,.11-.09.23-.13.35a43.79,43.79,0,0,1-17.18,3.37h-1.12a.49.49,0,0,1-.48-.5.48.48,0,0,1,.49-.47h0A42.25,42.25,0,0,0,132.5,368Z" transform="translate(-20.65 -39.42)"/><path class="cls-17" d="M123.28,334c.83,3.64,2.61,11-2.85,11.15-6.57.17-13.14-6.3-14.61-9.08l6.78-2.62Z" transform="translate(-20.65 -39.42)"/><path class="cls-15" d="M138.11,392.43c-9.34-5.89-21.82-17.59-21.82-17.59s-5.51-6.57-17.08-36.22c0,0-6.21,7.16-1.91,23.19,4.2,15.61,11,21.22,11,21.22s17.25,12.36,26.38,15.42C136.07,396,136.78,394.9,138.11,392.43Z" transform="translate(-20.65 -39.42)"/><rect class="cls-3" x="121.97" y="393.2" width="62.29" height="4.71" rx="1.8" transform="translate(-59.27 -22.21) rotate(-5.71)"/><polygon class="cls-2" points="163.69 355.38 112.98 360.29 125.63 331.24 176.34 326.33 163.69 355.38"/><polygon class="cls-3" points="160.54 355.69 160.53 355.7 109.83 360.6 122.47 331.55 125.62 331.24 112.98 360.29 160.54 355.69"/><path class="cls-3" d="M169.18,382.34a3.25,3.25,0,1,1-3.56-2.91A3.26,3.26,0,0,1,169.18,382.34Z" transform="translate(-20.65 -39.42)"/><path class="cls-20" d="M127.46,316.75s2.18-2.27,3.42-.1-1.36,8-4.75,6.17Z" transform="translate(-20.65 -39.42)"/><path class="cls-1" d="M127.75,322.56a.65.65,0,0,0,.58.7.64.64,0,0,0,.71-.58.65.65,0,1,0-1.29-.12Z" transform="translate(-20.65 -39.42)"/><path class="cls-21" d="M127.08,321a.28.28,0,0,0,.3-.18,4.52,4.52,0,0,1,2.84-2.36.29.29,0,0,0,.21-.35.3.3,0,0,0-.37-.2,5,5,0,0,0-3.24,2.71.28.28,0,0,0,.18.36Z" transform="translate(-20.65 -39.42)"/><path class="cls-21" d="M129.21,320.3a.23.23,0,0,0,.16,0,.28.28,0,0,0,.13-.38,2.71,2.71,0,0,0-1-1,.3.3,0,0,0-.41.1.28.28,0,0,0,.12.39,2.2,2.2,0,0,1,.8.73A.3.3,0,0,0,129.21,320.3Z" transform="translate(-20.65 -39.42)"/><path class="cls-17" d="M111.31,327.88l-.7,7.36s3.17,3,5.82,3.45,3.86-2.57,3.86-2.57l.66-6.85Z" transform="translate(-20.65 -39.42)"/><path class="cls-20" d="M111.24,328.6l-.28,2.94c1.6,2.16,4.72,3.16,9.49,2.92l.43-4.47Z" transform="translate(-20.65 -39.42)"/><path class="cls-17" d="M128.36,319.66c-.15.7-.32,1.42-.52,2.13-1.3,4.7-4.82,9.59-8.73,10.09-8.44,1.08-11.25-5.73-12.11-10.64-.1-.54.24-1.13.18-1.77a49.26,49.26,0,0,1-.55-5c0-1.17.06-2.31.11-3.35a6.79,6.79,0,0,1,4.82-6.23c3.94-1.15,9.82-1.79,15,1.93a6.88,6.88,0,0,1,2.78,6.09A51.51,51.51,0,0,1,128.36,319.66Z" transform="translate(-20.65 -39.42)"/><path class="cls-20" d="M117.93,322.4a.31.31,0,0,1-.29-.29.33.33,0,0,1,.3-.35l1.12-.08-1.13-4.18a.32.32,0,0,1,.22-.4.34.34,0,0,1,.4.23l1.33,4.94-1.9.14Z" transform="translate(-20.65 -39.42)"/><path class="cls-4" d="M126,311.29c3.09,1.78,1.7,5.52,2.6,7.55.06.13.13.16.22.1a50.2,50.2,0,0,0,1-6.83,6.91,6.91,0,0,0-2.94-6.21c-5.45-3.82-11.64-3.18-15.79-2a6.92,6.92,0,0,0-5.06,6.33c0,1.06-.09,2.23-.1,3.42.51.37,1.8.64,1.77,1.51-.07,2.29-.11,3.86.38,3.77.83-.16,1.59-2.87.84-4.74,0,0,.85-1.13,4-2a58.09,58.09,0,0,0,7.92-3,7,7,0,0,0,2.21-1.65A6.84,6.84,0,0,0,126,311.29Z" transform="translate(-20.65 -39.42)"/><path class="cls-4" d="M122.75,317.59c-.07.7.24,1.31.69,1.35s.87-.49.94-1.2-.24-1.31-.69-1.36S122.82,316.88,122.75,317.59Z" transform="translate(-20.65 -39.42)"/><path class="cls-4" d="M113.17,316.7c-.07.7.24,1.31.69,1.35s.87-.49.94-1.2-.24-1.31-.69-1.36S113.24,316,113.17,316.7Z" transform="translate(-20.65 -39.42)"/><path class="cls-4" d="M125.45,314.06a15.33,15.33,0,0,0-3.36-.61.58.58,0,0,0-.67.53h0a.52.52,0,0,0,.55.42,18,18,0,0,1,4.62.74.63.63,0,0,0-.2-.53A2,2,0,0,0,125.45,314.06Z" transform="translate(-20.65 -39.42)"/><path class="cls-4" d="M112.36,313a15.48,15.48,0,0,1,3.41,0c.37.05.64.35.57.64h0a.52.52,0,0,1-.62.32,17.62,17.62,0,0,0-4.67-.08.59.59,0,0,1,.29-.49A1.88,1.88,0,0,1,112.36,313Z" transform="translate(-20.65 -39.42)"/><path class="cls-1" d="M121.3,324.65a3.64,3.64,0,0,1-4,2.84,3.52,3.52,0,0,1-3.37-3.54Z" transform="translate(-20.65 -39.42)"/><path class="cls-20" d="M117.16,329.43a3.15,3.15,0,0,0,1.52-.29.31.31,0,0,0,.14-.42.31.31,0,0,0-.42-.15h0a2.4,2.4,0,0,1-1.18.23,2.71,2.71,0,0,1-1.17-.45.31.31,0,0,0-.38.5A3.22,3.22,0,0,0,117.16,329.43Z" transform="translate(-20.65 -39.42)"/><path class="cls-17" d="M107.57,314.83s-2-2.95-3.51-1.1-.19,7.85,3.2,6.74Z" transform="translate(-20.65 -39.42)"/><path class="cls-1" d="M105.2,320.4a.65.65,0,0,0,.58.71.64.64,0,0,0,.71-.58.65.65,0,1,0-1.29-.13Z" transform="translate(-20.65 -39.42)"/><path class="cls-20" d="M106.72,318.6a.27.27,0,0,1-.24-.23,4.31,4.31,0,0,0-2.15-2.76.28.28,0,0,1-.13-.37.28.28,0,0,1,.37-.13,4.75,4.75,0,0,1,2.45,3.17.27.27,0,0,1-.22.32Z" transform="translate(-20.65 -39.42)"/><path class="cls-20" d="M104.93,317.51a.25.25,0,0,1-.15-.05.28.28,0,0,1,0-.39,2.66,2.66,0,0,1,1.12-.74.28.28,0,1,1,.17.53,2,2,0,0,0-.85.55A.26.26,0,0,1,104.93,317.51Z" transform="translate(-20.65 -39.42)"/><path class="cls-4" d="M117.58,316.12a1.27,1.27,0,0,0-.07-.55,1.35,1.35,0,0,0-1.1-.9l-4.67-.55a1.35,1.35,0,0,0-1.34.71,1.53,1.53,0,0,0-.14.46l-.07.6a3.75,3.75,0,0,0,.77,2.78,3.45,3.45,0,0,0,2.22,1.31h.13a3.7,3.7,0,0,0,2.77-.78,3.76,3.76,0,0,0,1.44-2.55l0-.5A.06.06,0,0,0,117.58,316.12Zm-.61.48a3.25,3.25,0,0,1-1.23,2.18,3.21,3.21,0,0,1-2.37.66h-.11a2.84,2.84,0,0,1-1.86-1.11,3.18,3.18,0,0,1-.66-2.37l.07-.59a.79.79,0,0,1,.87-.69l4.66.55a.78.78,0,0,1,.68.87Z" transform="translate(-20.65 -39.42)"/><path class="cls-4" d="M127.45,317a1.21,1.21,0,0,0-.19-.52,1.36,1.36,0,0,0-1-.6l-4.66-.55a1.35,1.35,0,0,0-1.31.65,1.19,1.19,0,0,0-.17.49v0l-.07.6a3.71,3.71,0,0,0,.77,2.77,3.44,3.44,0,0,0,2.22,1.32h.12a3.76,3.76,0,0,0,2.78-.78,3.8,3.8,0,0,0,1.43-2.55l.06-.51A1.09,1.09,0,0,0,127.45,317Zm-.6.8a3.22,3.22,0,0,1-1.22,2.18,3.18,3.18,0,0,1-2.37.67h-.11a2.9,2.9,0,0,1-1.87-1.12,3.11,3.11,0,0,1-.65-2.36l.07-.6a.78.78,0,0,1,.86-.68l4.67.55a.79.79,0,0,1,.68.87Z" transform="translate(-20.65 -39.42)"/><path class="cls-4" d="M110.76,314.4a6.66,6.66,0,0,0-3.34-1l.14.57a6.36,6.36,0,0,1,2.84.86l.21.15.35-.44Z" transform="translate(-20.65 -39.42)"/><path class="cls-4" d="M117.39,316.16l-.12-.55a6,6,0,0,1,1.68-.08,3.64,3.64,0,0,1,1.48.47l-.3.47a3,3,0,0,0-1.24-.39A4.67,4.67,0,0,0,117.39,316.16Z" transform="translate(-20.65 -39.42)"/><path class="cls-4" d="M129,316.13a8,8,0,0,0-2,.38l.18.52a8.22,8.22,0,0,1,2-.35Z" transform="translate(-20.65 -39.42)"/><path class="cls-9" d="M92.77,121.31a4.87,4.87,0,1,1,4.87-4.87A4.88,4.88,0,0,1,92.77,121.31Zm0-8.21a3.35,3.35,0,1,0,3.35,3.34A3.35,3.35,0,0,0,92.77,113.1Z" transform="translate(-20.65 -39.42)"/><path class="cls-8" d="M75.31,99.45a4.88,4.88,0,1,1,4.87-4.88A4.89,4.89,0,0,1,75.31,99.45Zm0-8.22a3.35,3.35,0,1,0,3.34,3.34A3.35,3.35,0,0,0,75.31,91.23Z" transform="translate(-20.65 -39.42)"/><path class="cls-8" d="M108,94.6a.76.76,0,0,1-.76-.76V90.47a.77.77,0,0,1,.76-.77.78.78,0,0,1,.77.77v3.37A.77.77,0,0,1,108,94.6Z" transform="translate(-20.65 -39.42)"/><path class="cls-8" d="M108,100.5a.76.76,0,0,1-.76-.77V96.36a.76.76,0,0,1,.76-.76.77.77,0,0,1,.77.76v3.37A.77.77,0,0,1,108,100.5Z" transform="translate(-20.65 -39.42)"/><path class="cls-8" d="M112.7,95.86h-3a.76.76,0,0,1,0-1.52h3a.76.76,0,1,1,0,1.52Z" transform="translate(-20.65 -39.42)"/><path class="cls-8" d="M106.27,95.86h-3a.76.76,0,0,1,0-1.52h3a.76.76,0,0,1,0,1.52Z" transform="translate(-20.65 -39.42)"/><path class="cls-9" d="M92.77,74.77A.76.76,0,0,1,92,74V70.64a.76.76,0,0,1,.76-.77.77.77,0,0,1,.77.77V74A.77.77,0,0,1,92.77,74.77Z" transform="translate(-20.65 -39.42)"/><path class="cls-9" d="M92.77,80.67A.76.76,0,0,1,92,79.9V76.53a.76.76,0,0,1,.76-.76.77.77,0,0,1,.77.76V79.9A.77.77,0,0,1,92.77,80.67Z" transform="translate(-20.65 -39.42)"/><path class="cls-9" d="M97.5,76h-3a.76.76,0,1,1,0-1.52h3a.76.76,0,1,1,0,1.52Z" transform="translate(-20.65 -39.42)"/><path class="cls-9" d="M91.07,76H88a.76.76,0,0,1,0-1.52h3a.76.76,0,0,1,0,1.52Z" transform="translate(-20.65 -39.42)"/><path class="cls-8" d="M397.88,106.63a4.88,4.88,0,1,1,4.87-4.87A4.88,4.88,0,0,1,397.88,106.63Zm0-8.22a3.35,3.35,0,1,0,3.35,3.35A3.35,3.35,0,0,0,397.88,98.41Z" transform="translate(-20.65 -39.42)"/><path class="cls-8" d="M405.36,145.1a4.88,4.88,0,1,1,4.87-4.88A4.88,4.88,0,0,1,405.36,145.1Zm0-8.22a3.35,3.35,0,1,0,3.35,3.34A3.35,3.35,0,0,0,405.36,136.88Z" transform="translate(-20.65 -39.42)"/><path class="cls-9" d="M417.87,119.73a.76.76,0,0,1-.77-.77v-3.37a.77.77,0,0,1,1.53,0V119A.76.76,0,0,1,417.87,119.73Z" transform="translate(-20.65 -39.42)"/><path class="cls-9" d="M417.87,125.62a.76.76,0,0,1-.77-.76v-3.37a.77.77,0,0,1,1.53,0v3.37A.76.76,0,0,1,417.87,125.62Z" transform="translate(-20.65 -39.42)"/><path class="cls-9" d="M422.6,121h-3a.77.77,0,1,1,0-1.53h3a.77.77,0,0,1,0,1.53Z" transform="translate(-20.65 -39.42)"/><path class="cls-9" d="M416.16,121h-3a.77.77,0,1,1,0-1.53h3a.77.77,0,1,1,0,1.53Z" transform="translate(-20.65 -39.42)"/><path class="cls-9" d="M382.79,119.73A.76.76,0,0,1,382,119v-3.37a.77.77,0,0,1,1.53,0V119A.76.76,0,0,1,382.79,119.73Z" transform="translate(-20.65 -39.42)"/><path class="cls-9" d="M382.79,125.62a.76.76,0,0,1-.77-.76v-3.37a.77.77,0,0,1,1.53,0v3.37A.76.76,0,0,1,382.79,125.62Z" transform="translate(-20.65 -39.42)"/><path class="cls-9" d="M387.52,121h-3a.77.77,0,0,1,0-1.53h3a.77.77,0,0,1,0,1.53Z" transform="translate(-20.65 -39.42)"/><path class="cls-9" d="M381.08,121h-3a.77.77,0,1,1,0-1.53h3a.77.77,0,1,1,0,1.53Z" transform="translate(-20.65 -39.42)"/><path class="cls-3" d="M417.36,55.28V71.56a3.91,3.91,0,0,1-3.9,3.9H383.89L375,78.66a1.13,1.13,0,0,1-1.44-1.47l3.38-8.73V55.28a3.89,3.89,0,0,1,3.9-3.9h32.66A3.9,3.9,0,0,1,417.36,55.28Z" transform="translate(-20.65 -39.42)"/><path class="cls-1" d="M411.13,59.88H384a1.07,1.07,0,0,1-1.08-1.07h0A1.08,1.08,0,0,1,384,57.73h27.13a1.07,1.07,0,0,1,1.07,1.08h0A1.07,1.07,0,0,1,411.13,59.88Z" transform="translate(-20.65 -39.42)"/><path class="cls-1" d="M411.13,64.22H384a1.08,1.08,0,0,1-1.08-1.08h0A1.08,1.08,0,0,1,384,62.06h27.13a1.08,1.08,0,0,1,1.07,1.08h0A1.08,1.08,0,0,1,411.13,64.22Z" transform="translate(-20.65 -39.42)"/><path class="cls-1" d="M411.13,68.55H384a1.08,1.08,0,0,1-1.08-1.08h0A1.07,1.07,0,0,1,384,66.4h27.13a1.07,1.07,0,0,1,1.07,1.07h0A1.07,1.07,0,0,1,411.13,68.55Z" transform="translate(-20.65 -39.42)"/><path class="cls-8" d="M223.79,332.67V349a3.91,3.91,0,0,1-3.9,3.9H190.32l-8.93,3.2a1.13,1.13,0,0,1-1.44-1.48l3.38-8.72V332.67a3.9,3.9,0,0,1,3.9-3.9h32.66A3.91,3.91,0,0,1,223.79,332.67Z" transform="translate(-20.65 -39.42)"/><path class="cls-23" d="M217.56,337.28H190.43a1.08,1.08,0,0,1-1.08-1.08h0a1.07,1.07,0,0,1,1.08-1.07h27.13a1.07,1.07,0,0,1,1.07,1.07h0A1.07,1.07,0,0,1,217.56,337.28Z" transform="translate(-20.65 -39.42)"/><path class="cls-23" d="M217.56,341.61H190.43a1.07,1.07,0,0,1-1.08-1.07h0a1.08,1.08,0,0,1,1.08-1.08h27.13a1.07,1.07,0,0,1,1.07,1.08h0A1.07,1.07,0,0,1,217.56,341.61Z" transform="translate(-20.65 -39.42)"/><path class="cls-23" d="M217.56,346H190.43a1.08,1.08,0,0,1-1.08-1.08h0a1.08,1.08,0,0,1,1.08-1.08h27.13a1.08,1.08,0,0,1,1.07,1.08h0A1.08,1.08,0,0,1,217.56,346Z" transform="translate(-20.65 -39.42)"/><path class="cls-1" d="M422.56,434.45c0,1.95-11.12,3.53-24.84,3.53s-24.84-1.58-24.84-3.53,11.12-3.53,24.84-3.53S422.56,432.5,422.56,434.45Z" transform="translate(-20.65 -39.42)"/><path class="cls-2" d="M407.45,434H387.68a6.21,6.21,0,0,1-5.9-4.29l-8.38-25.8a1.72,1.72,0,0,1,1.5-2.24,290.79,290.79,0,0,1,45.34,0,1.72,1.72,0,0,1,1.5,2.24l-8.39,25.8A6.2,6.2,0,0,1,407.45,434Z" transform="translate(-20.65 -39.42)"/><path class="cls-4" d="M420,403.57c0,.68-10,1.24-22.28,1.24s-22.28-.56-22.28-1.24,10-1.25,22.28-1.25S420,402.88,420,403.57Z" transform="translate(-20.65 -39.42)"/><path class="cls-16" d="M400.09,403.73l-2.18-.33c4-26.75,5.73-55.71,5.33-88.52l2.2,0C405.84,347.78,404.09,376.85,400.09,403.73Z" transform="translate(-20.65 -39.42)"/><path class="cls-16" d="M400.72,380.56c-.21-9-12-15.61-12.09-15.67l1.06-1.93c.53.3,13,7.29,13.22,17.55Z" transform="translate(-20.65 -39.42)"/><path class="cls-16" d="M403.58,373.08l-2.16-.43c3.31-16.67,14.95-23.74,15.44-24l1.12,1.89C417.87,350.58,406.68,357.41,403.58,373.08Z" transform="translate(-20.65 -39.42)"/><path class="cls-8" d="M364.09,363.58c-2.58,3.9.32,12.32.32,12.32l6.86,14,12.41-6.51s-1.6-10.79-.35-10.53,3.18,9.46,3.18,9.46l6-3.87s-4.62-12-2.08-10.88,5.29,8.74,5.29,8.74,1.67-.16,3.83-5.29.82-14.71-5.79-16a11.81,11.81,0,0,0-10.47,2.66c-2.08-9.25-9.52-7.3-13.61-6.48s-5.78,7.67-5.78,7.67,10.66-1.79,10,.69S364.09,363.58,364.09,363.58Zm26-5.87s3.51-.7,4.19,1.49-4.1,3-5.76,2S387.74,358.36,390.11,357.71Zm-19.35,9.67a4.5,4.5,0,0,1,4.2-1.17,5.07,5.07,0,0,1-1.38,4c-1.75,2-5.08,2-5.08,2A9.3,9.3,0,0,1,370.76,367.38Z" transform="translate(-20.65 -39.42)"/><path class="cls-8" d="M365.69,311.86c-3.72,3.81-2.29,13.88-2.29,13.88l4.68,17.11,15.32-4.62s.52-12.43,1.87-11.88,1.53,11.28,1.53,11.28l7.56-3s-2.6-14.49,0-12.64,4,10.93,4,10.93,1.9.18,5.43-5.09,4.08-16.32-3-19.21a13.46,13.46,0,0,0-12.3.71c-.34-10.8-9.11-10.22-13.86-10.18s-8.13,7.35-8.13,7.35,12.33.28,11.05,2.92S365.69,311.86,365.69,311.86Zm30.43-1s4.08,0,4.38,2.57-5.26,2.5-6.9,1S393.32,311.09,396.12,310.88Zm-23.77,6.68a5.12,5.12,0,0,1,5-.42,5.81,5.81,0,0,1-2.41,4.2c-2.4,1.89-6.11,1.13-6.11,1.13A10.48,10.48,0,0,1,372.35,317.56Z" transform="translate(-20.65 -39.42)"/><path class="cls-8" d="M429.6,344c-.5-2.58,10.55,0,10.55,0s-1.25-7.11-5.48-8.23-11.88-3.61-14.78,5.69A12.51,12.51,0,0,0,409.11,338c-7,.9-9.2,10.6-7.32,16s3.61,5.66,3.61,5.66,3.46-7.55,6.22-8.56-3,11-3,11l6,4.36s2.74-9.28,4.08-9.45-1.19,10.73-1.19,10.73l12.52,7.5,8.28-13.79s3.7-8.4,1.3-12.56C439.58,348.8,430.1,346.54,429.6,344Zm-15.5.78c-1.81.89-6.78-.27-5.89-2.47s4.52-1.23,4.52-1.23C415.17,341.85,415.91,343.84,414.1,344.73Zm20.17,12.58s-3.49-.19-5.17-2.37a5.07,5.07,0,0,1-1.13-4.2,4.8,4.8,0,0,1,4.31,1.49A9.23,9.23,0,0,1,434.27,357.31Z" transform="translate(-20.65 -39.42)"/></g></svg>